<svg width="14" height="10" viewBox="0 0 14 10" fill="none" xmlns="http://www.w3.org/2000/svg">
<path d="M5.61776 9.73026C5.4865 9.73053 5.35647 9.70487 5.23514 9.65476C5.11382 9.60465 5.00358 9.53108 4.91076 9.43826L0.668763 5.19526C0.57319 5.10308 0.496931 4.99279 0.444438 4.87082C0.391944 4.74886 0.364267 4.61766 0.36302 4.48488C0.361773 4.3521 0.386983 4.22041 0.437176 4.09748C0.48737 3.97455 0.561544 3.86284 0.655369 3.76888C0.749195 3.67493 0.860793 3.60059 0.983652 3.55023C1.10651 3.49986 1.23817 3.47446 1.37095 3.47552C1.50373 3.47658 1.63497 3.50407 1.75701 3.55639C1.87905 3.60872 1.98945 3.68482 2.08176 3.78026L5.61676 7.31526L11.9818 0.952261C12.1693 0.76462 12.4236 0.659151 12.6889 0.659058C12.9542 0.658964 13.2086 0.764252 13.3963 0.95176C13.5839 1.13927 13.6894 1.39364 13.6895 1.65891C13.6896 1.92418 13.5843 2.17862 13.3968 2.36626L6.32476 9.43826C6.23194 9.53108 6.12171 9.60465 6.00038 9.65476C5.87906 9.70487 5.74903 9.73053 5.61776 9.73026V9.73026Z" fill="#2FAB73"/>
</svg>
